<svg width="140" height="117" viewBox="0 0 140 117" fill="none" xmlns="http://www.w3.org/2000/svg">
<path d="M31.814 37.2903C31.4732 38.6168 31.1929 39.9594 30.9732 41.3182C30.41 44.7776 30.2593 48.2915 30.5243 51.7864C30.8367 55.9776 31.7961 60.0952 33.3683 63.9928C33.7187 65.0795 34.1185 66.1539 34.5621 67.2103L34.5786 67.2283C38.714 76.4347 46.2413 83.4417 55.9462 85.869C66.8833 88.6042 78.1151 84.8926 86.5018 76.9448C81.2217 76.7947 76.0489 75.4178 71.393 72.923C55.2973 64.335 48.8908 44.8715 57.117 29.4199C59.1952 25.5454 62.0731 22.1568 65.56 19.4787C69.0469 16.8006 73.0631 14.8942 77.3426 13.8857C77.5587 13.8035 77.7776 13.7243 78.0022 13.6454C78.0612 13.6239 78.1117 13.5839 78.1461 13.5314C78.1806 13.479 78.1973 13.4168 78.1936 13.3541C78.19 13.2914 78.1663 13.2316 78.1259 13.1835C78.0856 13.1353 78.0309 13.1015 77.9698 13.0869C72.8061 12.0347 67.4827 12.0404 62.3212 13.1037C54.3553 14.6705 47.8744 18.2763 42.9427 23.1258C46.196 17.9391 50.6029 13.5735 55.82 10.3691C55.9172 10.3093 55.9886 10.2155 56.0203 10.1058C56.052 9.99623 56.0417 9.87873 55.9914 9.77632C55.941 9.67391 55.8543 9.59396 55.7482 9.5521C55.642 9.51024 55.5241 9.50947 55.4174 9.54996C43.1679 14.2525 34.9419 25.0873 31.814 37.2903Z" fill="#6366F1"/>
<path d="M138.931 9.7319C127.711 33.3353 149.842 56.7705 119.171 88.4631C119.143 88.49 119.107 88.5066 119.069 88.5101C119.03 88.5136 118.992 88.5039 118.96 88.4825C118.927 88.4611 118.904 88.4293 118.892 88.3925C118.881 88.3557 118.882 88.316 118.896 88.2802C131.535 60.3232 120.134 34.4043 138.013 9.19973C138.084 9.07797 138.2 8.98923 138.336 8.95303C138.472 8.91684 138.616 8.93615 138.738 9.00672C138.86 9.07729 138.949 9.19334 138.985 9.32934C139.021 9.46534 139.002 9.61014 138.931 9.7319Z" fill="#6366F1"/>
<path d="M22.545 3.447C2.79532 25.656 5.9114 63.1921 29.0427 81.892C32.9856 85.6241 37.6197 88.55 42.6845 90.5054C43.1963 90.7057 43.706 90.896 44.2196 91.0803C44.2659 91.1019 44.3162 91.1174 44.3614 91.134C53.4177 94.3445 63.6268 94.9954 73.22 93.511C77.2958 92.8052 81.2917 91.6977 85.1492 90.2046C85.4585 90.0874 85.7719 89.9641 86.0841 89.8358C89.9761 88.2672 93.6996 86.3094 97.1981 83.9923C107.618 77.1048 115.842 67.0257 119.455 54.5969C120.317 51.9654 120.99 49.276 121.469 46.5489C121.484 46.4715 121.524 46.4011 121.582 46.3481C121.641 46.2951 121.715 46.2623 121.793 46.2546C121.872 46.2468 121.951 46.2646 122.019 46.3052C122.086 46.3457 122.139 46.407 122.169 46.48L122.221 46.7249C122.516 49.3975 122.654 52.0852 122.634 54.774C122.61 58.8511 122.243 62.919 121.538 66.9347C118.093 86.4465 107.306 102.236 93.9171 109.842C89.6952 112.294 85.0329 113.893 80.1947 114.548C66.279 117.731 51.6881 115.947 38.9496 109.504C17.7259 98.9098 2.5815 76.9182 0.543754 53.7211C0.277076 50.7219 0.238093 47.7067 0.427142 44.7015C1.35509 29.852 7.95583 15.0521 22.0391 2.92711C22.108 2.86002 22.2008 2.82306 22.297 2.82437C22.3932 2.82568 22.4849 2.86515 22.552 2.9341C22.6191 3.00304 22.656 3.09581 22.6547 3.192C22.6534 3.28819 22.6139 3.37991 22.545 3.447Z" fill="#6366F1"/>
<path d="M72.4584 20.2358C73.6716 19.6265 74.9283 19.1077 76.218 18.6837C76.6586 18.5397 77.1064 18.401 77.5615 18.2769C77.712 18.2331 77.868 18.1911 78.0203 18.1509C78.3285 18.0687 78.6404 17.9938 78.9541 17.9225C79.1101 17.8896 79.2678 17.8512 79.4292 17.8201C77.3419 18.8321 75.3831 20.0901 73.5945 21.5672L73.5546 21.5872C72.8698 22.1308 72.2214 22.7106 71.5893 23.2868C66.9378 27.6394 63.7669 33.3399 62.5218 39.5874C61.175 46.3414 62.2549 53.354 65.5712 59.3899C66.1566 60.3185 66.8043 61.2065 67.5096 62.0478L67.3658 61.7614C66.1685 59.6276 65.2587 57.3448 64.6601 54.9724C63.9357 52.1443 63.7133 49.211 64.0029 46.3059C64.2484 43.7984 64.908 41.3489 65.9549 39.0572C65.9836 38.9913 66.0359 38.9384 66.1015 38.9091C66.1672 38.8798 66.2414 38.8761 66.3096 38.8987C66.3779 38.9213 66.4352 38.9686 66.4703 39.0313C66.5054 39.0941 66.5159 39.1676 66.4995 39.2376C65.4492 43.4182 65.4786 47.7971 66.5851 51.9632C68.0717 57.6894 71.4549 62.9262 76.3242 66.232C76.6911 66.5017 77.0615 66.7423 77.4393 66.9793C80.5642 68.9533 84.1097 70.1645 87.7892 70.5151C88.7553 70.6135 89.7269 70.6458 90.6973 70.6116C89.3434 71.9998 87.8952 73.2928 86.363 74.4813C86.0858 74.6976 85.8104 74.9085 85.5278 75.114L85.3572 75.0817C76.2619 75.3097 66.5512 69.0336 61.3068 58.59C60.6645 57.3101 60.1024 55.9916 59.6237 54.6419L59.6037 54.602L59.3923 54.0364L59.2956 53.7536C59.1607 53.3674 59.0331 52.9776 58.929 52.6077C58.8877 52.4832 58.8488 52.3515 58.8122 52.2125C58.7082 51.8607 58.6205 51.5053 58.5346 51.1445L58.467 50.8652C58.3793 50.4856 58.3024 50.1066 58.2365 49.7282L58.1797 49.4163L58.167 49.3909L58.123 49.1225C58.1179 49.1084 58.1112 49.0951 58.1029 49.0826L58.0662 48.8378C58.0277 48.5712 57.9909 48.3082 57.9614 48.0416C57.9503 47.9823 57.9429 47.9223 57.9394 47.8621C57.908 47.5827 57.8767 47.3034 57.8545 47.0241C57.8322 46.7448 57.8081 46.4346 57.7985 46.1444C57.7855 45.9829 57.7834 45.8251 57.7759 45.6655L57.757 45.2211L57.7533 45.1594C57.6635 40.6938 58.6285 36.27 60.5699 32.2475L60.691 32.0005L60.9188 31.5502C61.0815 31.2416 61.2479 30.9311 61.4197 30.6315C61.5083 30.4826 61.5951 30.33 61.6874 30.1793C61.7796 30.0286 61.8646 29.8815 61.9587 29.7344C62.0021 29.6581 62.051 29.5837 62.098 29.5146C62.2843 29.2168 62.4798 28.928 62.6788 28.6374C62.7801 28.4958 62.8797 28.3505 62.9865 28.2106C63.0932 28.0707 63.1928 27.9254 63.2995 27.7856C63.4063 27.6457 63.4461 27.5894 63.5222 27.4967C64.0538 26.8107 64.6199 26.1522 65.2185 25.5237C65.3272 25.4056 65.4412 25.2893 65.5535 25.1785C65.7213 25.0064 65.8916 24.8393 66.0642 24.6769L66.3033 24.4479L66.4065 24.3552C66.5079 24.2589 66.613 24.1607 66.7162 24.0681C66.9825 23.8299 67.2596 23.5954 67.5386 23.3646C67.6274 23.2882 67.7216 23.2137 67.8158 23.1392C67.9879 23.0028 68.14 22.881 68.3357 22.7373C68.3864 22.7119 68.4299 22.6628 68.4806 22.6283C68.718 22.4501 68.9607 22.2737 69.2108 22.1027C69.258 22.0655 69.3076 22.0315 69.3594 22.0009C69.4645 21.9481 69.5514 21.8681 69.6475 21.8063C69.7435 21.7444 69.845 21.6753 69.941 21.6135C70.1639 21.4698 70.3886 21.3297 70.6115 21.1951C70.6949 21.1532 70.7746 21.1131 70.8489 21.0532C70.9232 20.9932 71.0773 20.9385 71.1787 20.8603L71.6826 20.6073C71.7478 20.5745 71.8131 20.5417 71.882 20.5071C71.9508 20.4726 72.0415 20.427 72.1212 20.387L72.4584 20.2358Z" fill="#6366F1"/>
</svg>
