<svg width="407" height="264" viewBox="0 0 407 264" fill="none" xmlns="http://www.w3.org/2000/svg">
<path d="M142.089 34.095C138.713 34.1493 135.338 34.358 131.964 34.7212C123.372 35.6369 114.92 37.5689 106.783 40.4768C97.0219 43.9513 87.8575 48.9159 79.6154 55.1942C77.2602 56.7356 74.9661 58.3864 72.7437 60.1296L72.7117 60.1804C53.5183 76.0131 41.7651 98.4763 42.3192 123.132C42.9446 150.918 59.0897 175.203 83.4521 189.963C80.3675 177.311 80.2697 164.116 83.1666 151.42C93.0945 107.554 135.194 79.637 177.293 89.1243C187.859 91.54 197.791 96.1738 206.431 102.719C215.071 109.263 222.221 117.569 227.408 127.087C227.744 127.547 228.075 128.016 228.409 128.498C228.499 128.625 228.627 128.719 228.774 128.766C228.921 128.814 229.08 128.813 229.227 128.764C229.373 128.714 229.5 128.619 229.588 128.492C229.676 128.364 229.721 128.212 229.716 128.057C228.852 115.095 225.369 102.442 219.477 90.8632C210.56 72.9451 197.763 59.8865 183.019 51.3219C197.471 55.6763 210.722 63.3085 221.741 73.6238C221.947 73.816 222.216 73.9248 222.498 73.9287C222.779 73.9326 223.052 73.8315 223.262 73.645C223.473 73.4586 223.607 73.2003 223.637 72.9206C223.667 72.641 223.592 72.36 223.426 72.1328C204.262 46.0742 173.141 33.5781 142.089 34.095Z" fill="#6366F1"/>
<path d="M244.845 228.859C193.701 227.156 168.916 285.199 88.0516 254.893C87.9817 254.864 87.9237 254.812 87.8874 254.746C87.8511 254.68 87.8385 254.603 87.8519 254.529C87.8653 254.455 87.9038 254.387 87.9609 254.338C88.018 254.288 88.0904 254.26 88.1658 254.258C148.235 255.107 185.862 214.387 245.083 226.794C245.357 226.826 245.607 226.965 245.778 227.181C245.949 227.397 246.028 227.672 245.996 227.946C245.965 228.219 245.826 228.469 245.61 228.641C245.394 228.812 245.119 228.89 244.845 228.859Z" fill="#6366F1"/>
<path d="M187.948 19.2052C134.428 -3.64235 66.6791 25.498 46.3543 80.0776C41.8788 89.72 39.33 100.144 38.8512 110.764C38.7977 111.838 38.7615 112.903 38.739 113.971C38.7278 114.071 38.7302 114.174 38.7275 114.268C38.402 133.079 43.5456 152.438 52.2706 169.324C56.1168 176.452 60.6592 183.182 65.8315 189.414C66.2416 189.916 66.6654 190.421 67.0978 190.921C72.4317 197.17 78.3832 202.865 84.8618 207.918C104.132 222.977 127.962 231.975 153.285 230.95C158.706 230.912 164.118 230.487 169.479 229.68C169.632 229.661 169.787 229.691 169.922 229.767C170.057 229.842 170.164 229.959 170.227 230.1C170.29 230.241 170.307 230.399 170.273 230.55C170.24 230.7 170.159 230.837 170.043 230.938L169.62 231.186C164.842 233.397 159.938 235.325 154.934 236.962C147.349 239.453 139.569 241.303 131.674 242.493C93.3067 248.238 57.2808 238.036 34.8294 217.911C27.65 211.598 21.7804 203.937 17.5538 195.363C2.98523 171.508 -2.78062 143.309 1.25513 115.651C7.71845 69.6562 39.124 27.8564 80.9226 9.63985C86.3249 7.27857 91.8985 5.33012 97.5954 3.81125C125.742 -3.70541 157.325 -0.659491 188.599 17.9425C188.766 18.0287 188.893 18.178 188.95 18.3574C189.007 18.5368 188.991 18.7316 188.905 18.8991C188.819 19.0665 188.669 19.1929 188.49 19.2503C188.311 19.3077 188.116 19.2915 187.948 19.2052Z" fill="#6366F1"/>
<path d="M193.239 112.73C195.358 115.32 197.284 118.064 198.999 120.938C199.583 121.92 200.158 122.922 200.702 123.95C200.888 124.289 201.073 124.641 201.252 124.986C201.616 125.683 201.964 126.393 202.305 127.109C202.468 127.467 202.646 127.826 202.807 128.197C199.248 123.721 195.166 119.687 190.648 116.181L190.579 116.096C188.902 114.741 187.157 113.494 185.431 112.284C172.453 103.441 157.03 98.8853 141.33 99.2579C124.357 99.6587 108.069 106.036 95.3369 117.268C93.4184 119.177 91.6314 121.213 89.9879 123.363L90.5993 122.863C95.087 118.833 100.088 115.414 105.472 112.695C111.885 109.428 118.822 107.311 125.966 106.442C132.131 105.681 138.379 105.948 144.456 107.231C144.63 107.264 144.785 107.362 144.891 107.504C144.997 107.646 145.046 107.822 145.029 107.999C145.011 108.175 144.928 108.338 144.796 108.457C144.664 108.575 144.493 108.64 144.316 108.638C133.693 108.365 123.175 110.796 113.749 115.703C100.775 122.366 90.0015 133.328 84.6736 146.823C84.2227 147.851 83.8436 148.872 83.4771 149.909C80.4128 158.49 79.4102 167.672 80.5504 176.712C80.8342 179.089 81.2804 181.444 81.8857 183.76C77.8164 181.252 73.9254 178.465 70.2404 175.419C69.5706 174.869 68.9148 174.321 68.2681 173.751L68.254 173.324C62.8027 151.567 72.6662 124.824 94.9623 106.578C97.695 104.343 100.564 102.28 103.553 100.401L103.638 100.331L104.885 99.518L105.513 99.133C106.369 98.6003 107.238 98.0831 108.072 97.6334C108.349 97.4669 108.645 97.3022 108.96 97.1394C109.75 96.6996 110.557 96.2971 111.379 95.896L112.014 95.5828C112.88 95.1671 113.751 94.778 114.625 94.4153L115.345 94.1106L115.399 94.0663L116.021 93.8157C116.052 93.7961 116.081 93.7727 116.106 93.7461L116.676 93.5258C117.296 93.2893 117.909 93.0592 118.534 92.8445C118.671 92.7857 118.811 92.7357 118.954 92.6946C119.609 92.4687 120.265 92.2428 120.924 92.0387C121.584 91.8346 122.318 91.6094 123.011 91.4299C123.392 91.3117 123.77 91.2216 124.15 91.1174L125.209 90.8324L125.356 90.7901C136.05 88.1671 147.212 88.104 157.935 90.6057L158.594 90.764L159.8 91.0693C160.631 91.2943 161.467 91.5271 162.281 91.779C162.686 91.9119 163.1 92.0385 163.513 92.1792C163.925 92.3199 164.325 92.4451 164.729 92.5921C164.936 92.6554 165.141 92.7328 165.333 92.8088C166.15 93.0965 166.95 93.4109 167.756 93.7331C168.152 93.9005 168.555 94.0616 168.949 94.2431C169.343 94.4246 169.746 94.5857 170.14 94.7672C170.534 94.9486 170.691 95.0141 170.955 95.147C172.892 96.056 174.781 97.063 176.615 98.1643C176.958 98.3619 177.299 98.5737 177.627 98.784C178.131 99.095 178.625 99.4144 179.108 99.7422L179.788 100.194L180.067 100.392C180.353 100.584 180.646 100.784 180.925 100.982C181.641 101.495 182.354 102.035 183.06 102.582C183.292 102.754 183.522 102.94 183.752 103.127C184.173 103.467 184.548 103.768 184.999 104.161C185.087 104.269 185.229 104.347 185.339 104.451C185.896 104.926 186.451 105.415 186.997 105.924C187.112 106.017 187.221 106.119 187.322 106.227C187.506 106.451 187.745 106.617 187.946 106.815C188.146 107.012 188.367 107.219 188.568 107.417C189.033 107.876 189.491 108.341 189.936 108.804C190.081 108.982 190.22 109.153 190.405 109.299C190.589 109.445 190.804 109.786 191.047 109.988L191.927 111.064C192.041 111.203 192.155 111.343 192.275 111.49C192.396 111.637 192.554 111.83 192.693 112L193.239 112.73Z" fill="#6366F1"/>
<path d="M196.852 160.355C196.852 157.331 197.462 154.685 198.682 152.417C199.903 150.113 201.572 148.331 203.69 147.071C205.844 145.811 208.231 145.181 210.852 145.181C213.436 145.181 215.68 145.739 217.582 146.855C219.485 147.971 220.903 149.375 221.836 151.067V145.667H226.79V175.259H221.836V169.751C220.867 171.479 219.413 172.919 217.475 174.071C215.572 175.187 213.347 175.745 210.798 175.745C208.177 175.745 205.808 175.097 203.69 173.801C201.572 172.505 199.903 170.687 198.682 168.347C197.462 166.007 196.852 163.343 196.852 160.355ZM221.836 160.409C221.836 158.177 221.387 156.233 220.49 154.577C219.593 152.921 218.372 151.661 216.828 150.797C215.321 149.897 213.652 149.447 211.821 149.447C209.99 149.447 208.321 149.879 206.813 150.743C205.305 151.607 204.103 152.867 203.205 154.523C202.308 156.179 201.859 158.123 201.859 160.355C201.859 162.623 202.308 164.603 203.205 166.295C204.103 167.951 205.305 169.229 206.813 170.129C208.321 170.993 209.99 171.425 211.821 171.425C213.652 171.425 215.321 170.993 216.828 170.129C218.372 169.229 219.593 167.951 220.49 166.295C221.387 164.603 221.836 162.641 221.836 160.409ZM239.97 135.299V175.259H235.07V135.299H239.97ZM253.222 151.121C254.191 149.429 255.627 148.025 257.529 146.909C259.468 145.757 261.711 145.181 264.26 145.181C266.881 145.181 269.25 145.811 271.368 147.071C273.522 148.331 275.209 150.113 276.429 152.417C277.65 154.685 278.26 157.331 278.26 160.355C278.26 163.343 277.65 166.007 276.429 168.347C275.209 170.687 273.522 172.505 271.368 173.801C269.25 175.097 266.881 175.745 264.26 175.745C261.747 175.745 259.522 175.187 257.583 174.071C255.681 172.919 254.227 171.497 253.222 169.805V189.299H248.322V145.667H253.222V151.121ZM273.253 160.355C273.253 158.123 272.804 156.179 271.906 154.523C271.009 152.867 269.788 151.607 268.245 150.743C266.737 149.879 265.068 149.447 263.237 149.447C261.442 149.447 259.773 149.897 258.229 150.797C256.722 151.661 255.501 152.939 254.568 154.631C253.671 156.287 253.222 158.213 253.222 160.409C253.222 162.641 253.671 164.603 254.568 166.295C255.501 167.951 256.722 169.229 258.229 170.129C259.773 170.993 261.442 171.425 263.237 171.425C265.068 171.425 266.737 170.993 268.245 170.129C269.788 169.229 271.009 167.951 271.906 166.295C272.804 164.603 273.253 162.623 273.253 160.355ZM282.879 160.355C282.879 157.331 283.489 154.685 284.71 152.417C285.931 150.113 287.6 148.331 289.718 147.071C291.871 145.811 294.259 145.181 296.879 145.181C299.464 145.181 301.708 145.739 303.61 146.855C305.513 147.971 306.931 149.375 307.864 151.067V145.667H312.818V175.259H307.864V169.751C306.895 171.479 305.441 172.919 303.502 174.071C301.6 175.187 299.374 175.745 296.825 175.745C294.205 175.745 291.836 175.097 289.718 173.801C287.6 172.505 285.931 170.687 284.71 168.347C283.489 166.007 282.879 163.343 282.879 160.355ZM307.864 160.409C307.864 158.177 307.415 156.233 306.518 154.577C305.62 152.921 304.4 151.661 302.856 150.797C301.348 149.897 299.679 149.447 297.848 149.447C296.018 149.447 294.348 149.879 292.841 150.743C291.333 151.607 290.131 152.867 289.233 154.523C288.336 156.179 287.887 158.123 287.887 160.355C287.887 162.623 288.336 164.603 289.233 166.295C290.131 167.951 291.333 169.229 292.841 170.129C294.348 170.993 296.018 171.425 297.848 171.425C299.679 171.425 301.348 170.993 302.856 170.129C304.4 169.229 305.62 167.951 306.518 166.295C307.415 164.603 307.864 162.641 307.864 160.409ZM325.998 151.121C326.968 149.429 328.403 148.025 330.306 146.909C332.244 145.757 334.488 145.181 337.037 145.181C339.657 145.181 342.026 145.811 344.144 147.071C346.298 148.331 347.985 150.113 349.206 152.417C350.426 154.685 351.037 157.331 351.037 160.355C351.037 163.343 350.426 166.007 349.206 168.347C347.985 170.687 346.298 172.505 344.144 173.801C342.026 175.097 339.657 175.745 337.037 175.745C334.524 175.745 332.298 175.187 330.36 174.071C328.457 172.919 327.003 171.497 325.998 169.805V189.299H321.098V145.667H325.998V151.121ZM346.029 160.355C346.029 158.123 345.58 156.179 344.683 154.523C343.785 152.867 342.565 151.607 341.021 150.743C339.514 149.879 337.844 149.447 336.014 149.447C334.219 149.447 332.55 149.897 331.006 150.797C329.498 151.661 328.278 152.939 327.344 154.631C326.447 156.287 325.998 158.213 325.998 160.409C325.998 162.641 326.447 164.603 327.344 166.295C328.278 167.951 329.498 169.229 331.006 170.129C332.55 170.993 334.219 171.425 336.014 171.425C337.844 171.425 339.514 170.993 341.021 170.129C342.565 169.229 343.785 167.951 344.683 166.295C345.58 164.603 346.029 162.623 346.029 160.355ZM384.408 159.329C384.408 160.265 384.355 161.255 384.247 162.299H360.663C360.843 165.215 361.831 167.501 363.624 169.157C365.455 170.777 367.662 171.587 370.247 171.587C372.366 171.587 374.124 171.101 375.524 170.129C376.962 169.121 377.966 167.789 378.539 166.133H383.816C383.027 168.977 381.447 171.299 379.078 173.099C376.708 174.863 373.766 175.745 370.247 175.745C367.447 175.745 364.935 175.115 362.708 173.855C360.52 172.595 358.797 170.813 357.54 168.509C356.284 166.169 355.656 163.469 355.656 160.409C355.656 157.349 356.266 154.667 357.486 152.363C358.707 150.059 360.412 148.295 362.601 147.071C364.827 145.811 367.377 145.181 370.247 145.181C373.047 145.181 375.524 145.793 377.678 147.017C379.832 148.241 381.485 149.933 382.632 152.093C383.816 154.217 384.408 156.629 384.408 159.329ZM379.347 158.303C379.347 156.431 378.935 154.829 378.108 153.497C377.285 152.129 376.154 151.103 374.716 150.419C373.316 149.699 371.755 149.339 370.032 149.339C367.555 149.339 365.438 150.131 363.678 151.715C361.955 153.299 360.968 155.495 360.717 158.303H379.347ZM395.778 150.473C396.64 148.781 397.859 147.467 399.44 146.531C401.055 145.595 403.01 145.127 405.309 145.127V150.203H404.017C398.524 150.203 395.778 153.191 395.778 159.167V175.259H390.878V145.667H395.778V150.473Z" fill="white"/>
<path d="M184.475 203.195C184.475 200.171 185.085 197.525 186.305 195.257C187.526 192.953 189.195 191.171 191.313 189.911C193.467 188.651 195.854 188.021 198.475 188.021C201.059 188.021 203.303 188.579 205.205 189.695C207.108 190.811 208.526 192.215 209.459 193.907V188.507H214.413V218.099H209.459V212.591C208.49 214.319 207.036 215.759 205.098 216.911C203.195 218.027 200.97 218.585 198.421 218.585C195.8 218.585 193.431 217.937 191.313 216.641C189.195 215.345 187.526 213.527 186.305 211.187C185.085 208.847 184.475 206.183 184.475 203.195ZM209.459 203.249C209.459 201.017 209.01 199.073 208.113 197.417C207.216 195.761 205.995 194.501 204.452 193.637C202.944 192.737 201.275 192.287 199.444 192.287C197.613 192.287 195.944 192.719 194.436 193.583C192.928 194.447 191.726 195.707 190.828 197.363C189.931 199.019 189.482 200.963 189.482 203.195C189.482 205.463 189.931 207.443 190.828 209.135C191.726 210.791 192.928 212.069 194.436 212.969C195.944 213.833 197.613 214.265 199.444 214.265C201.275 214.265 202.944 213.833 204.452 212.969C205.995 212.069 207.216 210.791 208.113 209.135C209.01 207.443 209.459 205.481 209.459 203.249ZM239.063 213.563L248.217 188.507H253.44L241.863 218.099H236.155L224.578 188.507H229.855L239.063 213.563ZM290.569 202.169C290.569 203.105 290.515 204.095 290.408 205.139H266.823C267.002 208.055 267.99 210.341 269.785 211.997C271.615 213.617 273.823 214.427 276.408 214.427C278.526 214.427 280.285 213.941 281.685 212.969C283.12 211.961 284.126 210.629 284.7 208.973H289.977C289.187 211.817 287.608 214.139 285.239 215.939C282.869 217.703 279.926 218.585 276.408 218.585C273.608 218.585 271.095 217.955 268.869 216.695C266.679 215.435 264.956 213.653 263.7 211.349C262.444 209.009 261.815 206.309 261.815 203.249C261.815 200.189 262.426 197.507 263.646 195.203C264.867 192.899 266.572 191.135 268.762 189.911C270.987 188.651 273.536 188.021 276.408 188.021C279.208 188.021 281.685 188.633 283.839 189.857C285.992 191.081 287.644 192.773 288.792 194.933C289.977 197.057 290.569 199.469 290.569 202.169ZM285.508 201.143C285.508 199.271 285.095 197.669 284.269 196.337C283.444 194.969 282.313 193.943 280.877 193.259C279.477 192.539 277.915 192.179 276.192 192.179C273.715 192.179 271.597 192.971 269.839 194.555C268.115 196.139 267.128 198.335 266.877 201.143H285.508Z" fill="white"/>
<path d="M195.005 140.299L173.252 215.575H162.267L144.821 154.987L126.728 215.575L115.852 215.683L94.8516 140.299H105.298L121.667 204.127L139.759 140.299H150.744L167.975 203.911L184.452 140.299H195.005Z" fill="white"/>
</svg>
