<svg width="426" height="117" viewBox="0 0 426 117" fill="none" xmlns="http://www.w3.org/2000/svg">
<path d="M146.308 34.1767C146.308 30.0994 147.127 26.5318 148.764 23.4738C150.401 20.3674 152.64 17.9647 155.481 16.2657C158.371 14.5667 161.573 13.7174 165.088 13.7174C168.555 13.7174 171.564 14.4699 174.116 15.9745C176.669 17.4791 178.57 19.3721 179.822 21.6536V14.3727H186.468V54.272H179.822V46.8455C178.522 49.1754 176.572 51.1168 173.972 52.6702C171.42 54.1748 168.435 54.9273 165.016 54.9273C161.501 54.9273 158.323 54.0536 155.481 52.3062C152.64 50.5588 150.401 48.1076 148.764 44.9525C147.127 41.7973 146.308 38.2056 146.308 34.1767ZM179.822 34.2495C179.822 31.24 179.22 28.6189 178.017 26.3862C176.813 24.1535 175.176 22.4545 173.105 21.2896C171.083 20.0762 168.844 19.4693 166.388 19.4693C163.932 19.4693 161.693 20.0518 159.671 21.2167C157.648 22.3817 156.035 24.0807 154.831 26.3134C153.628 28.5461 153.026 31.1672 153.026 34.1767C153.026 37.2347 153.628 39.9043 154.831 42.1857C156.035 44.4184 157.648 46.1418 159.671 47.3552C161.693 48.5201 163.932 49.1026 166.388 49.1026C168.844 49.1026 171.083 48.5201 173.105 47.3552C175.176 46.1418 176.813 44.4184 178.017 42.1857C179.22 39.9043 179.822 37.2591 179.822 34.2495ZM204.148 0.393372V54.272H197.575V0.393372H204.148ZM221.923 21.7264C223.223 19.4449 225.149 17.5519 227.701 16.0473C230.301 14.4939 233.311 13.7174 236.73 13.7174C240.245 13.7174 243.423 14.5667 246.264 16.2657C249.153 17.9647 251.416 20.3674 253.053 23.4738C254.69 26.5318 255.509 30.0994 255.509 34.1767C255.509 38.2056 254.69 41.7973 253.053 44.9525C251.416 48.1076 249.153 50.5588 246.264 52.3062C243.423 54.0536 240.245 54.9273 236.73 54.9273C233.359 54.9273 230.374 54.1748 227.773 52.6702C225.221 51.1168 223.271 49.1998 221.923 46.9183V73.2024H215.35V14.3727H221.923V21.7264ZM248.792 34.1767C248.792 31.1672 248.19 28.5461 246.986 26.3134C245.782 24.0807 244.145 22.3817 242.075 21.2167C240.052 20.0518 237.813 19.4693 235.357 19.4693C232.95 19.4693 230.71 20.0762 228.64 21.2896C226.618 22.4545 224.981 24.1775 223.728 26.459C222.525 28.6917 221.923 31.2888 221.923 34.2495C221.923 37.2591 222.525 39.9043 223.728 42.1857C224.981 44.4184 226.618 46.1418 228.64 47.3552C230.71 48.5201 232.95 49.1026 235.357 49.1026C237.813 49.1026 240.052 48.5201 242.075 47.3552C244.145 46.1418 245.782 44.4184 246.986 42.1857C248.19 39.9043 248.792 37.2347 248.792 34.1767ZM261.705 34.1767C261.705 30.0994 262.524 26.5318 264.161 23.4738C265.798 20.3674 268.037 17.9647 270.878 16.2657C273.767 14.5667 276.969 13.7174 280.484 13.7174C283.951 13.7174 286.961 14.4699 289.513 15.9745C292.065 17.4791 293.967 19.3721 295.219 21.6536V14.3727H301.864V54.272H295.219V46.8455C293.919 49.1754 291.969 51.1168 289.368 52.6702C286.817 54.1748 283.831 54.9273 280.412 54.9273C276.897 54.9273 273.719 54.0536 270.878 52.3062C268.037 50.5588 265.798 48.1076 264.161 44.9525C262.524 41.7973 261.705 38.2056 261.705 34.1767ZM295.219 34.2495C295.219 31.24 294.617 28.6189 293.413 26.3862C292.21 24.1535 290.573 22.4545 288.502 21.2896C286.479 20.0762 284.24 19.4693 281.784 19.4693C279.329 19.4693 277.09 20.0518 275.067 21.2167C273.045 22.3817 271.432 24.0807 270.228 26.3134C269.024 28.5461 268.422 31.1672 268.422 34.1767C268.422 37.2347 269.024 39.9043 270.228 42.1857C271.432 44.4184 273.045 46.1418 275.067 47.3552C277.09 48.5201 279.329 49.1026 281.784 49.1026C284.24 49.1026 286.479 48.5201 288.502 47.3552C290.573 46.1418 292.21 44.4184 293.413 42.1857C294.617 39.9043 295.219 37.2591 295.219 34.2495ZM319.544 21.7264C320.845 19.4449 322.771 17.5519 325.323 16.0473C327.923 14.4939 330.932 13.7174 334.351 13.7174C337.866 13.7174 341.044 14.5667 343.885 16.2657C346.774 17.9647 349.038 20.3674 350.675 23.4738C352.312 26.5318 353.131 30.0994 353.131 34.1767C353.131 38.2056 352.312 41.7973 350.675 44.9525C349.038 48.1076 346.774 50.5588 343.885 52.3062C341.044 54.0536 337.866 54.9273 334.351 54.9273C330.98 54.9273 327.995 54.1748 325.395 52.6702C322.843 51.1168 320.893 49.1998 319.544 46.9183V73.2024H312.972V14.3727H319.544V21.7264ZM346.414 34.1767C346.414 31.1672 345.812 28.5461 344.608 26.3134C343.404 24.0807 341.767 22.3817 339.696 21.2167C337.674 20.0518 335.435 19.4693 332.979 19.4693C330.571 19.4693 328.332 20.0762 326.262 21.2896C324.239 22.4545 322.602 24.1775 321.35 26.459C320.146 28.6917 319.544 31.2888 319.544 34.2495C319.544 37.2591 320.146 39.9043 321.35 42.1857C322.602 44.4184 324.239 46.1418 326.262 47.3552C328.332 48.5201 330.571 49.1026 332.979 49.1026C335.435 49.1026 337.674 48.5201 339.696 47.3552C341.767 46.1418 343.404 44.4184 344.608 42.1857C345.812 39.9043 346.414 37.2347 346.414 34.1767ZM397.895 32.7934C397.895 34.0555 397.823 35.3901 397.679 36.7979H366.044C366.284 40.7296 367.61 43.8119 370.015 46.0446C372.471 48.2289 375.432 49.321 378.899 49.321C381.741 49.321 384.1 48.6657 385.978 47.3552C387.906 45.9962 389.253 44.2 390.022 41.9673H397.101C396.043 45.8018 393.923 48.9326 390.745 51.3597C387.567 53.738 383.619 54.9273 378.899 54.9273C375.143 54.9273 371.774 54.078 368.787 52.379C365.851 50.68 363.54 48.2773 361.855 45.1709C360.169 42.0157 359.327 38.3753 359.327 34.2495C359.327 30.1238 360.145 26.5074 361.782 23.401C363.419 20.2946 365.707 17.9159 368.643 16.2657C371.629 14.5667 375.049 13.7174 378.899 13.7174C382.655 13.7174 385.978 14.5427 388.867 16.1929C391.756 17.8431 393.973 20.1246 395.512 23.037C397.101 25.9009 397.895 29.1529 397.895 32.7934ZM391.106 31.41C391.106 28.8861 390.553 26.7258 389.445 24.93C388.339 23.0854 386.823 21.702 384.894 20.7799C383.016 19.809 380.922 19.3237 378.61 19.3237C375.288 19.3237 372.449 20.3915 370.087 22.5273C367.776 24.6632 366.453 27.6239 366.116 31.41H391.106ZM413.146 20.8527C414.302 18.5712 415.938 16.7998 418.058 15.5376C420.225 14.2755 422.847 13.6446 425.931 13.6446V20.4886H424.197C416.83 20.4886 413.146 24.5175 413.146 32.5749V54.272H406.574V14.3727H413.146V20.8527Z" fill="white"/>
<path d="M129.706 91.9385C129.706 87.8612 130.525 84.2936 132.162 81.2356C133.799 78.1292 136.038 75.7265 138.879 74.0275C141.768 72.3285 144.971 71.4792 148.486 71.4792C151.952 71.4792 154.962 72.2317 157.514 73.7363C160.066 75.2409 161.968 77.1339 163.22 79.4154V72.1345H169.865V112.034H163.22V104.607C161.92 106.937 159.97 108.879 157.37 110.432C154.817 111.937 151.832 112.689 148.413 112.689C144.898 112.689 141.72 111.815 138.879 110.068C136.038 108.321 133.799 105.869 132.162 102.714C130.525 99.5591 129.706 95.9674 129.706 91.9385ZM163.22 92.0114C163.22 89.0018 162.618 86.3807 161.414 84.148C160.211 81.9153 158.573 80.2163 156.503 79.0513C154.48 77.838 152.241 77.2311 149.786 77.2311C147.33 77.2311 145.091 77.8136 143.068 78.9785C141.046 80.1435 139.433 81.8425 138.229 84.0752C137.025 86.3079 136.423 88.929 136.423 91.9385C136.423 94.9965 137.025 97.6661 138.229 99.9475C139.433 102.18 141.046 103.904 143.068 105.117C145.091 106.282 147.33 106.864 149.786 106.864C152.241 106.864 154.48 106.282 156.503 105.117C158.573 103.904 160.211 102.18 161.414 99.9475C162.618 97.6661 163.22 95.0209 163.22 92.0114ZM202.93 105.918L215.209 72.1345H222.215L206.686 112.034H199.03L183.501 72.1345H190.579L202.93 105.918ZM272.02 90.5552C272.02 91.8173 271.948 93.1519 271.804 94.5597H240.168C240.408 98.4914 241.732 101.574 244.14 103.806C246.596 105.991 249.557 107.083 253.024 107.083C255.865 107.083 258.225 106.428 260.103 105.117C262.029 103.758 263.377 101.962 264.147 99.7291H271.226C270.166 103.564 268.048 106.694 264.87 109.121C261.692 111.5 257.743 112.689 253.024 112.689C249.268 112.689 245.897 111.84 242.912 110.141C239.975 108.442 237.663 106.039 235.978 102.933C234.293 99.7775 233.45 96.1371 233.45 92.0114C233.45 87.8856 234.269 84.2692 235.906 81.1628C237.543 78.0564 239.83 75.6778 242.768 74.0275C245.753 72.3285 249.172 71.4792 253.024 71.4792C256.78 71.4792 260.103 72.3045 262.992 73.9547C265.881 75.6049 268.096 77.8864 269.637 80.7988C271.226 83.6627 272.02 86.9147 272.02 90.5552ZM265.231 89.1718C265.231 86.6479 264.677 84.4876 263.57 82.6918C262.462 80.8472 260.945 79.4638 259.019 78.5417C257.141 77.5708 255.047 77.0855 252.735 77.0855C249.413 77.0855 246.572 78.1532 244.212 80.2891C241.901 82.425 240.577 85.3857 240.24 89.1718H265.231Z" fill="white"/>
<path d="M31.8142 37.2903C31.4734 38.6168 31.1931 39.9594 30.9734 41.3182C30.4102 44.7776 30.2595 48.2915 30.5245 51.7864C30.8369 55.9776 31.7963 60.0952 33.3685 63.9928C33.7189 65.0795 34.1187 66.1539 34.5623 67.2103L34.5788 67.2283C38.7142 76.4347 46.2415 83.4417 55.9464 85.869C66.8835 88.6042 78.1153 84.8926 86.502 76.9448C81.2219 76.7947 76.0491 75.4178 71.3932 72.923C55.2975 64.335 48.891 44.8715 57.1172 29.4199C59.1954 25.5454 62.0733 22.1568 65.5602 19.4787C69.0471 16.8006 73.0633 14.8942 77.3428 13.8857C77.5589 13.8035 77.7778 13.7243 78.0024 13.6454C78.0614 13.6239 78.1119 13.5839 78.1463 13.5314C78.1808 13.479 78.1975 13.4168 78.1938 13.3541C78.1902 13.2914 78.1665 13.2316 78.1261 13.1835C78.0858 13.1353 78.0311 13.1015 77.97 13.0869C72.8063 12.0347 67.4829 12.0404 62.3214 13.1037C54.3555 14.6705 47.8746 18.2763 42.9429 23.1258C46.1962 17.9391 50.6031 13.5735 55.8202 10.3691C55.9174 10.3093 55.9888 10.2155 56.0205 10.1058C56.0522 9.99623 56.0419 9.87873 55.9916 9.77632C55.9412 9.67391 55.8545 9.59396 55.7484 9.5521C55.6422 9.51024 55.5243 9.50947 55.4176 9.54996C43.1681 14.2525 34.9421 25.0873 31.8142 37.2903Z" fill="#6366F1"/>
<path d="M138.931 9.7319C127.711 33.3353 149.842 56.7705 119.171 88.4631C119.143 88.49 119.107 88.5066 119.069 88.5101C119.03 88.5136 118.992 88.5039 118.96 88.4825C118.927 88.4611 118.904 88.4293 118.892 88.3925C118.881 88.3557 118.882 88.316 118.896 88.2802C131.535 60.3232 120.134 34.4043 138.013 9.19973C138.084 9.07797 138.2 8.98923 138.336 8.95303C138.472 8.91684 138.616 8.93615 138.738 9.00672C138.86 9.07729 138.949 9.19334 138.985 9.32934C139.021 9.46534 139.002 9.61014 138.931 9.7319Z" fill="#6366F1"/>
<path d="M22.545 3.44699C2.79532 25.656 5.9114 63.1921 29.0427 81.892C32.9856 85.6241 37.6197 88.55 42.6845 90.5054C43.1963 90.7057 43.706 90.896 44.2196 91.0803C44.2659 91.1019 44.3162 91.1174 44.3614 91.134C53.4177 94.3445 63.6268 94.9954 73.22 93.511C77.2958 92.8052 81.2917 91.6977 85.1492 90.2046C85.4585 90.0874 85.7719 89.9641 86.0841 89.8358C89.9761 88.2672 93.6996 86.3094 97.1981 83.9923C107.618 77.1048 115.842 67.0257 119.455 54.5969C120.317 51.9654 120.99 49.276 121.469 46.5489C121.484 46.4715 121.524 46.4011 121.582 46.3481C121.641 46.2951 121.715 46.2623 121.793 46.2546C121.872 46.2468 121.951 46.2646 122.019 46.3052C122.086 46.3457 122.139 46.407 122.169 46.48L122.221 46.7249C122.516 49.3975 122.654 52.0852 122.634 54.774C122.61 58.8511 122.243 62.919 121.538 66.9347C118.093 86.4465 107.306 102.236 93.9171 109.842C89.6952 112.294 85.0329 113.893 80.1947 114.548C66.279 117.731 51.6881 115.947 38.9496 109.504C17.7259 98.9098 2.5815 76.9182 0.543754 53.7211C0.277076 50.7219 0.238093 47.7067 0.427142 44.7015C1.35509 29.852 7.95583 15.0521 22.0391 2.9271C22.108 2.86001 22.2008 2.82305 22.297 2.82436C22.3932 2.82567 22.4849 2.86514 22.552 2.93409C22.6191 3.00303 22.656 3.0958 22.6547 3.19199C22.6534 3.28818 22.6139 3.3799 22.545 3.44699Z" fill="#6366F1"/>
<path d="M72.4583 20.2358C73.6715 19.6265 74.9282 19.1077 76.2179 18.6837C76.6585 18.5397 77.1063 18.401 77.5614 18.2769C77.7119 18.2331 77.8679 18.1911 78.0202 18.1509C78.3284 18.0687 78.6403 17.9938 78.954 17.9225C79.11 17.8896 79.2677 17.8512 79.4291 17.8201C77.3418 18.8321 75.383 20.0901 73.5944 21.5672L73.5545 21.5872C72.8697 22.1308 72.2213 22.7106 71.5892 23.2868C66.9377 27.6394 63.7668 33.3399 62.5217 39.5874C61.1749 46.3414 62.2548 53.354 65.5711 59.3899C66.1565 60.3185 66.8042 61.2065 67.5095 62.0478L67.3657 61.7614C66.1684 59.6276 65.2586 57.3448 64.66 54.9724C63.9356 52.1443 63.7132 49.211 64.0028 46.3059C64.2483 43.7984 64.9079 41.3489 65.9548 39.0572C65.9835 38.9913 66.0358 38.9384 66.1014 38.9091C66.1671 38.8798 66.2413 38.8761 66.3095 38.8987C66.3778 38.9213 66.4351 38.9686 66.4702 39.0313C66.5053 39.0941 66.5158 39.1676 66.4994 39.2376C65.4491 43.4182 65.4785 47.7971 66.585 51.9632C68.0716 57.6894 71.4548 62.9262 76.3241 66.232C76.691 66.5017 77.0614 66.7423 77.4392 66.9793C80.5641 68.9533 84.1096 70.1645 87.7891 70.5151C88.7552 70.6135 89.7268 70.6458 90.6972 70.6116C89.3433 71.9998 87.8951 73.2928 86.3629 74.4813C86.0857 74.6976 85.8103 74.9085 85.5277 75.114L85.3571 75.0817C76.2618 75.3097 66.5511 69.0336 61.3067 58.59C60.6644 57.3101 60.1023 55.9916 59.6236 54.6419L59.6036 54.602L59.3922 54.0364L59.2955 53.7536C59.1606 53.3674 59.033 52.9776 58.9289 52.6077C58.8876 52.4832 58.8487 52.3515 58.8121 52.2125C58.7081 51.8607 58.6204 51.5053 58.5345 51.1445L58.4669 50.8652C58.3792 50.4856 58.3023 50.1066 58.2364 49.7282L58.1796 49.4163L58.1669 49.3909L58.1229 49.1225C58.1178 49.1084 58.1111 49.0951 58.1028 49.0826L58.0661 48.8378C58.0276 48.5712 57.9908 48.3082 57.9613 48.0416C57.9502 47.9823 57.9428 47.9223 57.9393 47.8621C57.9079 47.5827 57.8766 47.3034 57.8544 47.0241C57.8321 46.7448 57.808 46.4346 57.7984 46.1444C57.7854 45.9829 57.7833 45.8251 57.7758 45.6655L57.7569 45.2211L57.7532 45.1594C57.6634 40.6938 58.6284 36.27 60.5698 32.2475L60.6909 32.0005L60.9187 31.5502C61.0814 31.2416 61.2478 30.9311 61.4196 30.6315C61.5082 30.4826 61.595 30.33 61.6873 30.1793C61.7795 30.0286 61.8645 29.8815 61.9586 29.7344C62.002 29.6581 62.0509 29.5837 62.0979 29.5146C62.2842 29.2168 62.4797 28.928 62.6787 28.6374C62.78 28.4958 62.8796 28.3505 62.9864 28.2106C63.0931 28.0707 63.1927 27.9254 63.2994 27.7856C63.4062 27.6457 63.446 27.5894 63.5221 27.4967C64.0537 26.8107 64.6198 26.1522 65.2184 25.5237C65.3271 25.4056 65.4411 25.2893 65.5534 25.1785C65.7212 25.0064 65.8915 24.8393 66.0641 24.6769L66.3032 24.4479L66.4064 24.3552C66.5078 24.2589 66.6129 24.1607 66.7161 24.0681C66.9824 23.8299 67.2595 23.5954 67.5385 23.3646C67.6273 23.2882 67.7215 23.2137 67.8157 23.1392C67.9878 23.0028 68.1399 22.881 68.3356 22.7373C68.3863 22.7119 68.4298 22.6628 68.4805 22.6283C68.7179 22.4501 68.9606 22.2737 69.2107 22.1027C69.2579 22.0655 69.3075 22.0315 69.3593 22.0009C69.4644 21.9481 69.5513 21.8681 69.6474 21.8063C69.7434 21.7444 69.8449 21.6753 69.9409 21.6135C70.1638 21.4698 70.3885 21.3297 70.6114 21.1951C70.6948 21.1532 70.7745 21.1131 70.8488 21.0532C70.9231 20.9932 71.0772 20.9385 71.1786 20.8603L71.6825 20.6073C71.7477 20.5745 71.813 20.5417 71.8819 20.5071C71.9507 20.4726 72.0414 20.427 72.1211 20.387L72.4583 20.2358Z" fill="#6366F1"/>
</svg>
